<?xml version="1.0" encoding="UTF-8" standalone="no"?>
<!DOCTYPE svg PUBLIC "-//W3C//DTD SVG 1.1//EN"
 "http://www.w3.org/Graphics/SVG/1.1/DTD/svg11.dtd">
<!-- Generated by graphviz version 2.43.0 (0)
 -->
<!-- Title: dump_graph Pages: 1 -->
<svg width="951pt" height="502pt"
 viewBox="0.00 0.00 951.00 502.00" xmlns="http://www.w3.org/2000/svg" xmlns:xlink="http://www.w3.org/1999/xlink">
<g id="graph0" class="graph" transform="scale(1 1) rotate(0) translate(4 498)">
<title>dump_graph</title>
<polygon fill="white" stroke="transparent" points="-4,4 -4,-498 947,-498 947,4 -4,4"/>
<!-- node0x558b680723c0 -->
<g id="node1" class="node">
<title>node0x558b680723c0</title>
<polygon fill="lightskyblue" stroke="transparent" points="30.5,-248 30.5,-269 136.5,-269 136.5,-248 30.5,-248"/>
<polygon fill="none" stroke="black" points="30.5,-248 30.5,-269 136.5,-269 136.5,-248 30.5,-248"/>
<text text-anchor="start" x="65.5" y="-254.8" font-family="Times,serif" font-size="14.00">linux</text>
<polygon fill="none" stroke="black" points="30.5,-225 30.5,-246 79.5,-246 79.5,-225 30.5,-225"/>
<text text-anchor="start" x="33.5" y="-231.8" font-family="Times,serif" font-size="14.00">L:(nil)</text>
<polygon fill="none" stroke="black" points="81.5,-225 81.5,-246 136.5,-246 136.5,-225 81.5,-225"/>
<text text-anchor="start" x="84.5" y="-231.8" font-family="Times,serif" font-size="14.00">R: (nil)</text>
<polygon fill="none" stroke="black" points="27.5,-222 27.5,-272 139.5,-272 139.5,-222 27.5,-222"/>
</g>
<!-- node0x558b68072380 -->
<g id="node2" class="node">
<title>node0x558b68072380</title>
<polygon fill="lightskyblue" stroke="transparent" points="11.5,-357 11.5,-378 308.5,-378 308.5,-357 11.5,-357"/>
<polygon fill="none" stroke="black" points="11.5,-357 11.5,-378 308.5,-378 308.5,-357 11.5,-357"/>
<text text-anchor="start" x="78.5" y="-363.8" font-family="Times,serif" font-size="14.00">good operation system</text>
<polygon fill="none" stroke="black" points="11.5,-334 11.5,-355 155.5,-355 155.5,-334 11.5,-334"/>
<text text-anchor="start" x="14.5" y="-340.8" font-family="Times,serif" font-size="14.00">L:0x558b680723c0</text>
<polygon fill="none" stroke="black" points="157.5,-334 157.5,-355 308.5,-355 308.5,-334 157.5,-334"/>
<text text-anchor="start" x="160.5" y="-340.8" font-family="Times,serif" font-size="14.00">R: 0x558b68072400</text>
<polygon fill="none" stroke="black" points="8,-331 8,-381 311,-381 311,-331 8,-331"/>
</g>
<!-- node0x558b68072380&#45;&gt;node0x558b680723c0 -->
<g id="edge1" class="edge">
<title>node0x558b68072380:lchild&#45;&gt;node0x558b680723c0</title>
<path fill="none" stroke="black" stroke-width="2" d="M83.5,-333C83.5,-317.8 83.5,-301.07 83.5,-286.51"/>
<polygon fill="black" stroke="black" stroke-width="2" points="83.5,-276.33 88,-286.33 84,-281.33 84,-286.33 83.5,-286.33 83,-286.33 83,-281.33 79,-286.33 83.5,-276.33 83.5,-276.33"/>
<text text-anchor="middle" x="96" y="-297.8" font-family="Times,serif" font-size="14.00">Yes</text>
</g>
<!-- node0x558b68072400 -->
<g id="node3" class="node">
<title>node0x558b68072400</title>
<polygon fill="lightskyblue" stroke="transparent" points="180.5,-248 180.5,-269 286.5,-269 286.5,-248 180.5,-248"/>
<polygon fill="none" stroke="black" points="180.5,-248 180.5,-269 286.5,-269 286.5,-248 180.5,-248"/>
<text text-anchor="start" x="202" y="-254.8" font-family="Times,serif" font-size="14.00">windows</text>
<polygon fill="none" stroke="black" points="180.5,-225 180.5,-246 229.5,-246 229.5,-225 180.5,-225"/>
<text text-anchor="start" x="183.5" y="-231.8" font-family="Times,serif" font-size="14.00">L:(nil)</text>
<polygon fill="none" stroke="black" points="231.5,-225 231.5,-246 286.5,-246 286.5,-225 231.5,-225"/>
<text text-anchor="start" x="234.5" y="-231.8" font-family="Times,serif" font-size="14.00">R: (nil)</text>
<polygon fill="none" stroke="black" points="177.5,-222 177.5,-272 289.5,-272 289.5,-222 177.5,-222"/>
</g>
<!-- node0x558b68072380&#45;&gt;node0x558b68072400 -->
<g id="edge2" class="edge">
<title>node0x558b68072380:rchild&#45;&gt;node0x558b68072400</title>
<path fill="none" stroke="black" stroke-width="2" d="M233.5,-333C233.5,-317.8 233.5,-301.07 233.5,-286.51"/>
<polygon fill="black" stroke="black" stroke-width="2" points="233.5,-276.33 238,-286.33 234,-281.33 234,-286.33 233.5,-286.33 233,-286.33 233,-281.33 229,-286.33 233.5,-276.33 233.5,-276.33"/>
<text text-anchor="middle" x="244" y="-297.8" font-family="Times,serif" font-size="14.00">No</text>
</g>
<!-- node0x558b68072340 -->
<g id="node4" class="node">
<title>node0x558b68072340</title>
<polygon fill="lightskyblue" stroke="transparent" points="156.5,-466 156.5,-487 454.5,-487 454.5,-466 156.5,-466"/>
<polygon fill="none" stroke="black" points="156.5,-466 156.5,-487 454.5,-487 454.5,-466 156.5,-466"/>
<text text-anchor="start" x="269.5" y="-472.8" font-family="Times,serif" font-size="14.00">inanimate</text>
<polygon fill="none" stroke="black" points="156.5,-443 156.5,-464 301.5,-464 301.5,-443 156.5,-443"/>
<text text-anchor="start" x="159.5" y="-449.8" font-family="Times,serif" font-size="14.00">L:0x558b68072380</text>
<polygon fill="none" stroke="black" points="303.5,-443 303.5,-464 454.5,-464 454.5,-443 303.5,-443"/>
<text text-anchor="start" x="306.5" y="-449.8" font-family="Times,serif" font-size="14.00">R: 0x558b68072440</text>
<polygon fill="none" stroke="black" points="153.5,-440 153.5,-490 457.5,-490 457.5,-440 153.5,-440"/>
</g>
<!-- node0x558b68072340&#45;&gt;node0x558b68072380 -->
<g id="edge3" class="edge">
<title>node0x558b68072340:lchild&#45;&gt;node0x558b68072380</title>
<path fill="none" stroke="black" stroke-width="2" d="M155.5,-453C131.06,-453 135.9,-421.56 144.52,-394.66"/>
<polygon fill="black" stroke="black" stroke-width="2" points="147.82,-385.03 148.84,-395.94 146.67,-389.92 145.05,-394.65 144.58,-394.49 144.11,-394.32 145.72,-389.59 140.32,-393.03 147.82,-385.03 147.82,-385.03"/>
<text text-anchor="middle" x="154" y="-406.8" font-family="Times,serif" font-size="14.00">Yes</text>
</g>
<!-- node0x558b68072440 -->
<g id="node5" class="node">
<title>node0x558b68072440</title>
<polygon fill="lightskyblue" stroke="transparent" points="348.5,-357 348.5,-378 645.5,-378 645.5,-357 348.5,-357"/>
<polygon fill="none" stroke="black" points="348.5,-357 348.5,-378 645.5,-378 645.5,-357 348.5,-357"/>
<text text-anchor="start" x="432" y="-363.8" font-family="Times,serif" font-size="14.00">chemistry teacher</text>
<polygon fill="none" stroke="black" points="348.5,-334 348.5,-355 493.5,-355 493.5,-334 348.5,-334"/>
<text text-anchor="start" x="351.5" y="-340.8" font-family="Times,serif" font-size="14.00">L:0x558b68072480</text>
<polygon fill="none" stroke="black" points="495.5,-334 495.5,-355 645.5,-355 645.5,-334 495.5,-334"/>
<text text-anchor="start" x="498.5" y="-340.8" font-family="Times,serif" font-size="14.00">R: 0x558b680724c0</text>
<polygon fill="none" stroke="black" points="345,-331 345,-381 648,-381 648,-331 345,-331"/>
</g>
<!-- node0x558b68072340&#45;&gt;node0x558b68072440 -->
<g id="edge4" class="edge">
<title>node0x558b68072340:rchild&#45;&gt;node0x558b68072440</title>
<path fill="none" stroke="black" stroke-width="2" d="M455.5,-453C481.94,-453 491.56,-421.83 494.94,-395.02"/>
<polygon fill="black" stroke="black" stroke-width="2" points="495.96,-385.03 499.42,-395.43 495.95,-390.05 495.44,-395.02 494.95,-394.97 494.45,-394.92 494.95,-389.95 490.47,-394.52 495.96,-385.03 495.96,-385.03"/>
<text text-anchor="middle" x="504" y="-406.8" font-family="Times,serif" font-size="14.00">No</text>
</g>
<!-- node0x558b68072480 -->
<g id="node6" class="node">
<title>node0x558b68072480</title>
<polygon fill="lightskyblue" stroke="transparent" points="346.5,-248 346.5,-269 452.5,-269 452.5,-248 346.5,-248"/>
<polygon fill="none" stroke="black" points="346.5,-248 346.5,-269 452.5,-269 452.5,-248 346.5,-248"/>
<text text-anchor="start" x="352.5" y="-254.8" font-family="Times,serif" font-size="14.00">Walter White</text>
<polygon fill="none" stroke="black" points="346.5,-225 346.5,-246 395.5,-246 395.5,-225 346.5,-225"/>
<text text-anchor="start" x="349.5" y="-231.8" font-family="Times,serif" font-size="14.00">L:(nil)</text>
<polygon fill="none" stroke="black" points="397.5,-225 397.5,-246 452.5,-246 452.5,-225 397.5,-225"/>
<text text-anchor="start" x="400.5" y="-231.8" font-family="Times,serif" font-size="14.00">R: (nil)</text>
<polygon fill="none" stroke="black" points="343.5,-222 343.5,-272 455.5,-272 455.5,-222 343.5,-222"/>
</g>
<!-- node0x558b68072440&#45;&gt;node0x558b68072480 -->
<g id="edge5" class="edge">
<title>node0x558b68072440:lchild&#45;&gt;node0x558b68072480</title>
<path fill="none" stroke="black" stroke-width="2" d="M420.5,-333C420.5,-317.31 417.09,-300.46 413.01,-285.94"/>
<polygon fill="black" stroke="black" stroke-width="2" points="410.12,-276.29 417.31,-284.58 412.04,-280.94 413.47,-285.73 413,-285.87 412.52,-286.01 411.08,-281.23 408.68,-287.16 410.12,-276.29 410.12,-276.29"/>
<text text-anchor="middle" x="431" y="-297.8" font-family="Times,serif" font-size="14.00">Yes</text>
</g>
<!-- node0x558b680724c0 -->
<g id="node7" class="node">
<title>node0x558b680724c0</title>
<polygon fill="lightskyblue" stroke="transparent" points="492.5,-248 492.5,-269 790.5,-269 790.5,-248 492.5,-248"/>
<polygon fill="none" stroke="black" points="492.5,-248 492.5,-269 790.5,-269 790.5,-248 492.5,-248"/>
<text text-anchor="start" x="584.5" y="-254.8" font-family="Times,serif" font-size="14.00">soviet detective</text>
<polygon fill="none" stroke="black" points="492.5,-225 492.5,-246 637.5,-246 637.5,-225 492.5,-225"/>
<text text-anchor="start" x="495.5" y="-231.8" font-family="Times,serif" font-size="14.00">L:0x558b68072500</text>
<polygon fill="none" stroke="black" points="639.5,-225 639.5,-246 790.5,-246 790.5,-225 639.5,-225"/>
<text text-anchor="start" x="642.5" y="-231.8" font-family="Times,serif" font-size="14.00">R: 0x558b68072540</text>
<polygon fill="none" stroke="black" points="489.5,-222 489.5,-272 793.5,-272 793.5,-222 489.5,-222"/>
</g>
<!-- node0x558b68072440&#45;&gt;node0x558b680724c0 -->
<g id="edge6" class="edge">
<title>node0x558b68072440:rchild&#45;&gt;node0x558b680724c0</title>
<path fill="none" stroke="black" stroke-width="2" d="M570.5,-333C570.5,-314.02 581.06,-297.04 594.03,-283.33"/>
<polygon fill="black" stroke="black" stroke-width="2" points="601.44,-276.07 597.45,-286.28 598.22,-279.93 594.65,-283.43 594.3,-283.07 593.95,-282.72 597.52,-279.21 591.15,-279.86 601.44,-276.07 601.44,-276.07"/>
<text text-anchor="middle" x="595" y="-297.8" font-family="Times,serif" font-size="14.00">No</text>
</g>
<!-- node0x558b68072500 -->
<g id="node8" class="node">
<title>node0x558b68072500</title>
<polygon fill="lightskyblue" stroke="transparent" points="488.5,-139 488.5,-160 594.5,-160 594.5,-139 488.5,-139"/>
<polygon fill="none" stroke="black" points="488.5,-139 488.5,-160 594.5,-160 594.5,-139 488.5,-139"/>
<text text-anchor="start" x="514" y="-145.8" font-family="Times,serif" font-size="14.00">Varnike</text>
<polygon fill="none" stroke="black" points="488.5,-116 488.5,-137 537.5,-137 537.5,-116 488.5,-116"/>
<text text-anchor="start" x="491.5" y="-122.8" font-family="Times,serif" font-size="14.00">L:(nil)</text>
<polygon fill="none" stroke="black" points="539.5,-116 539.5,-137 594.5,-137 594.5,-116 539.5,-116"/>
<text text-anchor="start" x="542.5" y="-122.8" font-family="Times,serif" font-size="14.00">R: (nil)</text>
<polygon fill="none" stroke="black" points="485.5,-113 485.5,-163 597.5,-163 597.5,-113 485.5,-113"/>
</g>
<!-- node0x558b680724c0&#45;&gt;node0x558b68072500 -->
<g id="edge7" class="edge">
<title>node0x558b680724c0:lchild&#45;&gt;node0x558b68072500</title>
<path fill="none" stroke="black" stroke-width="2" d="M564.5,-224C564.5,-208.23 560.76,-191.36 556.3,-176.84"/>
<polygon fill="black" stroke="black" stroke-width="2" points="553.13,-167.21 560.53,-175.3 555.17,-171.8 556.73,-176.55 556.26,-176.71 555.78,-176.86 554.22,-172.11 551.98,-178.11 553.13,-167.21 553.13,-167.21"/>
<text text-anchor="middle" x="575" y="-188.8" font-family="Times,serif" font-size="14.00">Yes</text>
</g>
<!-- node0x558b68072540 -->
<g id="node9" class="node">
<title>node0x558b68072540</title>
<polygon fill="lightskyblue" stroke="transparent" points="635.5,-139 635.5,-160 932.5,-160 932.5,-139 635.5,-139"/>
<polygon fill="none" stroke="black" points="635.5,-139 635.5,-160 932.5,-160 932.5,-139 635.5,-139"/>
<text text-anchor="start" x="759.5" y="-145.8" font-family="Times,serif" font-size="14.00">wizard</text>
<polygon fill="none" stroke="black" points="635.5,-116 635.5,-137 780.5,-137 780.5,-116 635.5,-116"/>
<text text-anchor="start" x="638.5" y="-122.8" font-family="Times,serif" font-size="14.00">L:0x558b68072580</text>
<polygon fill="none" stroke="black" points="782.5,-116 782.5,-137 932.5,-137 932.5,-116 782.5,-116"/>
<text text-anchor="start" x="785.5" y="-122.8" font-family="Times,serif" font-size="14.00">R: 0x558b680725c0</text>
<polygon fill="none" stroke="black" points="632,-113 632,-163 935,-163 935,-113 632,-113"/>
</g>
<!-- node0x558b680724c0&#45;&gt;node0x558b68072540 -->
<g id="edge8" class="edge">
<title>node0x558b680724c0:rchild&#45;&gt;node0x558b68072540</title>
<path fill="none" stroke="black" stroke-width="2" d="M791.5,-235C816,-235 809.84,-203.56 800.09,-176.66"/>
<polygon fill="black" stroke="black" stroke-width="2" points="796.38,-167.03 804.17,-174.74 798.64,-171.51 800.44,-176.18 799.97,-176.36 799.5,-176.54 797.71,-171.87 795.77,-177.97 796.38,-167.03 796.38,-167.03"/>
<text text-anchor="middle" x="818" y="-188.8" font-family="Times,serif" font-size="14.00">No</text>
</g>
<!-- node0x558b68072580 -->
<g id="node10" class="node">
<title>node0x558b68072580</title>
<polygon fill="lightskyblue" stroke="transparent" points="654.5,-30 654.5,-51 760.5,-51 760.5,-30 654.5,-30"/>
<polygon fill="none" stroke="black" points="654.5,-30 654.5,-51 760.5,-51 760.5,-30 654.5,-30"/>
<text text-anchor="start" x="662" y="-36.8" font-family="Times,serif" font-size="14.00">Harry Potter</text>
<polygon fill="none" stroke="black" points="654.5,-7 654.5,-28 703.5,-28 703.5,-7 654.5,-7"/>
<text text-anchor="start" x="657.5" y="-13.8" font-family="Times,serif" font-size="14.00">L:(nil)</text>
<polygon fill="none" stroke="black" points="705.5,-7 705.5,-28 760.5,-28 760.5,-7 705.5,-7"/>
<text text-anchor="start" x="708.5" y="-13.8" font-family="Times,serif" font-size="14.00">R: (nil)</text>
<polygon fill="none" stroke="black" points="651.5,-4 651.5,-54 763.5,-54 763.5,-4 651.5,-4"/>
</g>
<!-- node0x558b68072540&#45;&gt;node0x558b68072580 -->
<g id="edge9" class="edge">
<title>node0x558b68072540:lchild&#45;&gt;node0x558b68072580</title>
<path fill="none" stroke="black" stroke-width="2" d="M707.5,-115C707.5,-99.8 707.5,-83.07 707.5,-68.51"/>
<polygon fill="black" stroke="black" stroke-width="2" points="707.5,-58.33 712,-68.33 708,-63.33 708,-68.33 707.5,-68.33 707,-68.33 707,-63.33 703,-68.33 707.5,-58.33 707.5,-58.33"/>
<text text-anchor="middle" x="720" y="-79.8" font-family="Times,serif" font-size="14.00">Yes</text>
</g>
<!-- node0x558b680725c0 -->
<g id="node11" class="node">
<title>node0x558b680725c0</title>
<polygon fill="lightskyblue" stroke="transparent" points="804.5,-30 804.5,-51 910.5,-51 910.5,-30 804.5,-30"/>
<polygon fill="none" stroke="black" points="804.5,-30 804.5,-51 910.5,-51 910.5,-30 804.5,-30"/>
<text text-anchor="start" x="818.5" y="-36.8" font-family="Times,serif" font-size="14.00">Rust Kolhe</text>
<polygon fill="none" stroke="black" points="804.5,-7 804.5,-28 853.5,-28 853.5,-7 804.5,-7"/>
<text text-anchor="start" x="807.5" y="-13.8" font-family="Times,serif" font-size="14.00">L:(nil)</text>
<polygon fill="none" stroke="black" points="855.5,-7 855.5,-28 910.5,-28 910.5,-7 855.5,-7"/>
<text text-anchor="start" x="858.5" y="-13.8" font-family="Times,serif" font-size="14.00">R: (nil)</text>
<polygon fill="none" stroke="black" points="801.5,-4 801.5,-54 913.5,-54 913.5,-4 801.5,-4"/>
</g>
<!-- node0x558b68072540&#45;&gt;node0x558b680725c0 -->
<g id="edge10" class="edge">
<title>node0x558b68072540:rchild&#45;&gt;node0x558b680725c0</title>
<path fill="none" stroke="black" stroke-width="2" d="M857.5,-115C857.5,-99.8 857.5,-83.07 857.5,-68.51"/>
<polygon fill="black" stroke="black" stroke-width="2" points="857.5,-58.33 862,-68.33 858,-63.33 858,-68.33 857.5,-68.33 857,-68.33 857,-63.33 853,-68.33 857.5,-58.33 857.5,-58.33"/>
<text text-anchor="middle" x="868" y="-79.8" font-family="Times,serif" font-size="14.00">No</text>
</g>
</g>
</svg>
