<?xml version="1.0" encoding="UTF-8" standalone="no"?>
<!DOCTYPE svg PUBLIC "-//W3C//DTD SVG 1.1//EN"
 "http://www.w3.org/Graphics/SVG/1.1/DTD/svg11.dtd">
<!-- Generated by graphviz version 2.43.0 (0)
 -->
<!-- Title: dump_graph Pages: 1 -->
<svg width="301pt" height="284pt"
 viewBox="0.00 0.00 301.00 284.00" xmlns="http://www.w3.org/2000/svg" xmlns:xlink="http://www.w3.org/1999/xlink">
<g id="graph0" class="graph" transform="scale(1 1) rotate(0) translate(4 280)">
<title>dump_graph</title>
<polygon fill="white" stroke="transparent" points="-4,4 -4,-280 297,-280 297,4 -4,4"/>
<!-- node0x55708119c350 -->
<g id="node1" class="node">
<title>node0x55708119c350</title>
<polygon fill="lightskyblue" stroke="transparent" points="11.5,-30 11.5,-51 94.5,-51 94.5,-30 11.5,-30"/>
<polygon fill="none" stroke="black" points="11.5,-30 11.5,-51 94.5,-51 94.5,-30 11.5,-30"/>
<text text-anchor="start" x="21.5" y="-36.8" font-family="Times,serif" font-size="14.00">windows</text>
<polygon fill="none" stroke="black" points="11.5,-7 11.5,-28 46.5,-28 46.5,-7 11.5,-7"/>
<text text-anchor="start" x="14.5" y="-13.8" font-family="Times,serif" font-size="14.00">Left</text>
<polygon fill="none" stroke="black" points="48.5,-7 48.5,-28 94.5,-28 94.5,-7 48.5,-7"/>
<text text-anchor="start" x="51.5" y="-13.8" font-family="Times,serif" font-size="14.00">Right</text>
<polygon fill="none" stroke="black" points="8,-4 8,-54 97,-54 97,-4 8,-4"/>
</g>
<!-- node0x55708119c2f0 -->
<g id="node2" class="node">
<title>node0x55708119c2f0</title>
<polygon fill="lightskyblue" stroke="transparent" points="74.5,-139 74.5,-160 158.5,-160 158.5,-139 74.5,-139"/>
<polygon fill="none" stroke="black" points="74.5,-139 74.5,-160 158.5,-160 158.5,-139 74.5,-139"/>
<text text-anchor="start" x="78.5" y="-145.8" font-family="Times,serif" font-size="14.00">the worst?</text>
<polygon fill="none" stroke="black" points="74.5,-116 74.5,-137 109.5,-137 109.5,-116 74.5,-116"/>
<text text-anchor="start" x="77.5" y="-122.8" font-family="Times,serif" font-size="14.00">Left</text>
<polygon fill="none" stroke="black" points="111.5,-116 111.5,-137 158.5,-137 158.5,-116 111.5,-116"/>
<text text-anchor="start" x="115" y="-122.8" font-family="Times,serif" font-size="14.00">Right</text>
<polygon fill="none" stroke="black" points="71.5,-113 71.5,-163 161.5,-163 161.5,-113 71.5,-113"/>
</g>
<!-- node0x55708119c2f0&#45;&gt;node0x55708119c350 -->
<g id="edge1" class="edge">
<title>node0x55708119c2f0:lchild&#45;&gt;node0x55708119c350</title>
<path fill="none" stroke="black" stroke-width="2" d="M73.5,-126C48.61,-126 45.27,-94.83 47,-68.02"/>
<polygon fill="black" stroke="black" stroke-width="2" points="47.87,-58.03 51.48,-68.38 47.94,-63.05 47.5,-68.03 47,-67.99 46.5,-67.94 46.94,-62.96 42.52,-67.59 47.87,-58.03 47.87,-58.03"/>
<text text-anchor="middle" x="60" y="-79.8" font-family="Times,serif" font-size="14.00">Yes</text>
</g>
<!-- node0x55708119c380 -->
<g id="node3" class="node">
<title>node0x55708119c380</title>
<polygon fill="lightskyblue" stroke="transparent" points="134.5,-30 134.5,-51 217.5,-51 217.5,-30 134.5,-30"/>
<polygon fill="none" stroke="black" points="134.5,-30 134.5,-51 217.5,-51 217.5,-30 134.5,-30"/>
<text text-anchor="start" x="153" y="-36.8" font-family="Times,serif" font-size="14.00">macos</text>
<polygon fill="none" stroke="black" points="134.5,-7 134.5,-28 169.5,-28 169.5,-7 134.5,-7"/>
<text text-anchor="start" x="137.5" y="-13.8" font-family="Times,serif" font-size="14.00">Left</text>
<polygon fill="none" stroke="black" points="171.5,-7 171.5,-28 217.5,-28 217.5,-7 171.5,-7"/>
<text text-anchor="start" x="174.5" y="-13.8" font-family="Times,serif" font-size="14.00">Right</text>
<polygon fill="none" stroke="black" points="131,-4 131,-54 220,-54 220,-4 131,-4"/>
</g>
<!-- node0x55708119c2f0&#45;&gt;node0x55708119c380 -->
<g id="edge2" class="edge">
<title>node0x55708119c2f0:rchild&#45;&gt;node0x55708119c380</title>
<path fill="none" stroke="black" stroke-width="2" d="M159.5,-126C171.77,-126 175.27,-95.11 176,-68.37"/>
<polygon fill="black" stroke="black" stroke-width="2" points="176.16,-58.03 180.5,-68.09 176.58,-63.03 176.5,-68.03 176,-68.02 175.5,-68.02 175.58,-63.02 171.5,-67.96 176.16,-58.03 176.16,-58.03"/>
<text text-anchor="middle" x="187" y="-79.8" font-family="Times,serif" font-size="14.00">No</text>
</g>
<!-- node0x55708119beb0 -->
<g id="node4" class="node">
<title>node0x55708119beb0</title>
<polygon fill="lightskyblue" stroke="transparent" points="150.5,-248 150.5,-269 249.5,-269 249.5,-248 150.5,-248"/>
<polygon fill="none" stroke="black" points="150.5,-248 150.5,-269 249.5,-269 249.5,-248 150.5,-248"/>
<text text-anchor="start" x="154.5" y="-254.8" font-family="Times,serif" font-size="14.00">shit system?</text>
<polygon fill="none" stroke="black" points="150.5,-225 150.5,-246 193.5,-246 193.5,-225 150.5,-225"/>
<text text-anchor="start" x="157.5" y="-231.8" font-family="Times,serif" font-size="14.00">Left</text>
<polygon fill="none" stroke="black" points="195.5,-225 195.5,-246 249.5,-246 249.5,-225 195.5,-225"/>
<text text-anchor="start" x="202.5" y="-231.8" font-family="Times,serif" font-size="14.00">Right</text>
<polygon fill="none" stroke="black" points="147,-222 147,-272 252,-272 252,-222 147,-222"/>
</g>
<!-- node0x55708119beb0&#45;&gt;node0x55708119c2f0 -->
<g id="edge3" class="edge">
<title>node0x55708119beb0:lchild&#45;&gt;node0x55708119c2f0</title>
<path fill="none" stroke="black" stroke-width="2" d="M171.5,-224C171.5,-206.22 162.91,-189.22 152.53,-175.16"/>
<polygon fill="black" stroke="black" stroke-width="2" points="146.25,-167.24 155.99,-172.29 149.75,-170.85 152.85,-174.77 152.46,-175.08 152.07,-175.39 148.97,-171.47 148.93,-177.87 146.25,-167.24 146.25,-167.24"/>
<text text-anchor="middle" x="179" y="-188.8" font-family="Times,serif" font-size="14.00">Yes</text>
</g>
<!-- node0x55708119c320 -->
<g id="node5" class="node">
<title>node0x55708119c320</title>
<polygon fill="lightskyblue" stroke="transparent" points="199.5,-139 199.5,-160 282.5,-160 282.5,-139 199.5,-139"/>
<polygon fill="none" stroke="black" points="199.5,-139 199.5,-160 282.5,-160 282.5,-139 199.5,-139"/>
<text text-anchor="start" x="223" y="-145.8" font-family="Times,serif" font-size="14.00">linux</text>
<polygon fill="none" stroke="black" points="199.5,-116 199.5,-137 234.5,-137 234.5,-116 199.5,-116"/>
<text text-anchor="start" x="202.5" y="-122.8" font-family="Times,serif" font-size="14.00">Left</text>
<polygon fill="none" stroke="black" points="236.5,-116 236.5,-137 282.5,-137 282.5,-116 236.5,-116"/>
<text text-anchor="start" x="239.5" y="-122.8" font-family="Times,serif" font-size="14.00">Right</text>
<polygon fill="none" stroke="black" points="196,-113 196,-163 285,-163 285,-113 196,-113"/>
</g>
<!-- node0x55708119beb0&#45;&gt;node0x55708119c320 -->
<g id="edge4" class="edge">
<title>node0x55708119beb0:rchild&#45;&gt;node0x55708119c320</title>
<path fill="none" stroke="black" stroke-width="2" d="M222.5,-224C222.5,-208.31 225.47,-191.34 229,-176.72"/>
<polygon fill="black" stroke="black" stroke-width="2" points="231.5,-167.02 233.36,-177.83 230.74,-171.99 229.49,-176.83 229,-176.7 228.52,-176.58 229.77,-171.74 224.65,-175.58 231.5,-167.02 231.5,-167.02"/>
<text text-anchor="middle" x="237" y="-188.8" font-family="Times,serif" font-size="14.00">No</text>
</g>
</g>
</svg>
