<?xml version="1.0" encoding="UTF-8" standalone="no"?>
<!DOCTYPE svg PUBLIC "-//W3C//DTD SVG 1.1//EN"
 "http://www.w3.org/Graphics/SVG/1.1/DTD/svg11.dtd">
<!-- Generated by graphviz version 2.43.0 (0)
 -->
<!-- Title: dump_graph Pages: 1 -->
<svg width="654pt" height="284pt"
 viewBox="0.00 0.00 654.00 284.00" xmlns="http://www.w3.org/2000/svg" xmlns:xlink="http://www.w3.org/1999/xlink">
<g id="graph0" class="graph" transform="scale(1 1) rotate(0) translate(4 280)">
<title>dump_graph</title>
<polygon fill="white" stroke="transparent" points="-4,4 -4,-280 650,-280 650,4 -4,4"/>
<!-- node0x563eebe3a5a0 -->
<g id="node1" class="node">
<title>node0x563eebe3a5a0</title>
<polygon fill="lightskyblue" stroke="transparent" points="29,-30 29,-51 135,-51 135,-30 29,-30"/>
<polygon fill="none" stroke="black" points="29,-30 29,-51 135,-51 135,-30 29,-30"/>
<text text-anchor="start" x="50.5" y="-36.8" font-family="Times,serif" font-size="14.00">windows</text>
<polygon fill="none" stroke="black" points="29,-7 29,-28 78,-28 78,-7 29,-7"/>
<text text-anchor="start" x="32" y="-13.8" font-family="Times,serif" font-size="14.00">L:(nil)</text>
<polygon fill="none" stroke="black" points="80,-7 80,-28 135,-28 135,-7 80,-7"/>
<text text-anchor="start" x="83" y="-13.8" font-family="Times,serif" font-size="14.00">R: (nil)</text>
<polygon fill="none" stroke="black" points="26,-4 26,-54 138,-54 138,-4 26,-4"/>
</g>
<!-- node0x563eebe3a560 -->
<g id="node2" class="node">
<title>node0x563eebe3a560</title>
<polygon fill="lightskyblue" stroke="transparent" points="11,-139 11,-160 303,-160 303,-139 11,-139"/>
<polygon fill="none" stroke="black" points="11,-139 11,-160 303,-160 303,-139 11,-139"/>
<text text-anchor="start" x="122.5" y="-145.8" font-family="Times,serif" font-size="14.00">the worst</text>
<polygon fill="none" stroke="black" points="11,-116 11,-137 153,-137 153,-116 11,-116"/>
<text text-anchor="start" x="14" y="-122.8" font-family="Times,serif" font-size="14.00">L:0x563eebe3a5a0</text>
<polygon fill="none" stroke="black" points="155,-116 155,-137 303,-137 303,-116 155,-116"/>
<text text-anchor="start" x="158" y="-122.8" font-family="Times,serif" font-size="14.00">R: 0x563eebe3a5e0</text>
<polygon fill="none" stroke="black" points="8,-113 8,-163 306,-163 306,-113 8,-113"/>
</g>
<!-- node0x563eebe3a560&#45;&gt;node0x563eebe3a5a0 -->
<g id="edge1" class="edge">
<title>node0x563eebe3a560:lchild&#45;&gt;node0x563eebe3a5a0</title>
<path fill="none" stroke="black" stroke-width="2" d="M82,-115C82,-99.8 82,-83.07 82,-68.51"/>
<polygon fill="black" stroke="black" stroke-width="2" points="82,-58.33 86.5,-68.33 82.5,-63.33 82.5,-68.33 82,-68.33 81.5,-68.33 81.5,-63.33 77.5,-68.33 82,-58.33 82,-58.33"/>
<text text-anchor="middle" x="94.5" y="-79.8" font-family="Times,serif" font-size="14.00">Yes</text>
</g>
<!-- node0x563eebe3a5e0 -->
<g id="node3" class="node">
<title>node0x563eebe3a5e0</title>
<polygon fill="lightskyblue" stroke="transparent" points="176,-30 176,-51 282,-51 282,-30 176,-30"/>
<polygon fill="none" stroke="black" points="176,-30 176,-51 282,-51 282,-30 176,-30"/>
<text text-anchor="start" x="206" y="-36.8" font-family="Times,serif" font-size="14.00">macos</text>
<polygon fill="none" stroke="black" points="176,-7 176,-28 225,-28 225,-7 176,-7"/>
<text text-anchor="start" x="179" y="-13.8" font-family="Times,serif" font-size="14.00">L:(nil)</text>
<polygon fill="none" stroke="black" points="227,-7 227,-28 282,-28 282,-7 227,-7"/>
<text text-anchor="start" x="230" y="-13.8" font-family="Times,serif" font-size="14.00">R: (nil)</text>
<polygon fill="none" stroke="black" points="173,-4 173,-54 285,-54 285,-4 173,-4"/>
</g>
<!-- node0x563eebe3a560&#45;&gt;node0x563eebe3a5e0 -->
<g id="edge2" class="edge">
<title>node0x563eebe3a560:rchild&#45;&gt;node0x563eebe3a5e0</title>
<path fill="none" stroke="black" stroke-width="2" d="M229,-115C229,-99.8 229,-83.07 229,-68.51"/>
<polygon fill="black" stroke="black" stroke-width="2" points="229,-58.33 233.5,-68.33 229.5,-63.33 229.5,-68.33 229,-68.33 228.5,-68.33 228.5,-63.33 224.5,-68.33 229,-58.33 229,-58.33"/>
<text text-anchor="middle" x="239.5" y="-79.8" font-family="Times,serif" font-size="14.00">No</text>
</g>
<!-- node0x563eebe3a520 -->
<g id="node4" class="node">
<title>node0x563eebe3a520</title>
<polygon fill="lightskyblue" stroke="transparent" points="201,-248 201,-269 493,-269 493,-248 201,-248"/>
<polygon fill="none" stroke="black" points="201,-248 201,-269 493,-269 493,-248 201,-248"/>
<text text-anchor="start" x="305.5" y="-254.8" font-family="Times,serif" font-size="14.00">shit system</text>
<polygon fill="none" stroke="black" points="201,-225 201,-246 343,-246 343,-225 201,-225"/>
<text text-anchor="start" x="204" y="-231.8" font-family="Times,serif" font-size="14.00">L:0x563eebe3a560</text>
<polygon fill="none" stroke="black" points="345,-225 345,-246 493,-246 493,-225 345,-225"/>
<text text-anchor="start" x="348" y="-231.8" font-family="Times,serif" font-size="14.00">R: 0x563eebe3a620</text>
<polygon fill="none" stroke="black" points="198,-222 198,-272 496,-272 496,-222 198,-222"/>
</g>
<!-- node0x563eebe3a520&#45;&gt;node0x563eebe3a560 -->
<g id="edge3" class="edge">
<title>node0x563eebe3a520:lchild&#45;&gt;node0x563eebe3a560</title>
<path fill="none" stroke="black" stroke-width="2" d="M272,-224C272,-202.26 258.54,-185.44 240.83,-172.73"/>
<polygon fill="black" stroke="black" stroke-width="2" points="232.42,-167.17 243.25,-168.93 236.87,-169.51 241.04,-172.27 240.77,-172.69 240.49,-173.1 236.32,-170.35 238.28,-176.44 232.42,-167.17 232.42,-167.17"/>
<text text-anchor="middle" x="278.5" y="-188.8" font-family="Times,serif" font-size="14.00">Yes</text>
</g>
<!-- node0x563eebe3a620 -->
<g id="node5" class="node">
<title>node0x563eebe3a620</title>
<polygon fill="lightskyblue" stroke="transparent" points="343,-139 343,-160 635,-160 635,-139 343,-139"/>
<polygon fill="none" stroke="black" points="343,-139 343,-160 635,-160 635,-139 343,-139"/>
<text text-anchor="start" x="424" y="-145.8" font-family="Times,serif" font-size="14.00">chemistry teacher</text>
<polygon fill="none" stroke="black" points="343,-116 343,-137 485,-137 485,-116 343,-116"/>
<text text-anchor="start" x="346" y="-122.8" font-family="Times,serif" font-size="14.00">L:0x563eebe3a660</text>
<polygon fill="none" stroke="black" points="487,-116 487,-137 635,-137 635,-116 487,-116"/>
<text text-anchor="start" x="490" y="-122.8" font-family="Times,serif" font-size="14.00">R: 0x563eebe3a6a0</text>
<polygon fill="none" stroke="black" points="340,-113 340,-163 638,-163 638,-113 340,-113"/>
</g>
<!-- node0x563eebe3a520&#45;&gt;node0x563eebe3a620 -->
<g id="edge4" class="edge">
<title>node0x563eebe3a520:rchild&#45;&gt;node0x563eebe3a620</title>
<path fill="none" stroke="black" stroke-width="2" d="M494,-235C518.45,-235 513.28,-203.56 504.38,-176.66"/>
<polygon fill="black" stroke="black" stroke-width="2" points="500.98,-167.03 508.55,-174.96 503.12,-171.57 504.78,-176.29 504.31,-176.46 503.84,-176.62 502.17,-171.91 500.06,-177.95 500.98,-167.03 500.98,-167.03"/>
<text text-anchor="middle" x="520.5" y="-188.8" font-family="Times,serif" font-size="14.00">No</text>
</g>
<!-- node0x563eebe3a660 -->
<g id="node6" class="node">
<title>node0x563eebe3a660</title>
<polygon fill="lightskyblue" stroke="transparent" points="361,-30 361,-51 467,-51 467,-30 361,-30"/>
<polygon fill="none" stroke="black" points="361,-30 361,-51 467,-51 467,-30 361,-30"/>
<text text-anchor="start" x="367" y="-36.8" font-family="Times,serif" font-size="14.00">Walter White</text>
<polygon fill="none" stroke="black" points="361,-7 361,-28 410,-28 410,-7 361,-7"/>
<text text-anchor="start" x="364" y="-13.8" font-family="Times,serif" font-size="14.00">L:(nil)</text>
<polygon fill="none" stroke="black" points="412,-7 412,-28 467,-28 467,-7 412,-7"/>
<text text-anchor="start" x="415" y="-13.8" font-family="Times,serif" font-size="14.00">R: (nil)</text>
<polygon fill="none" stroke="black" points="358,-4 358,-54 470,-54 470,-4 358,-4"/>
</g>
<!-- node0x563eebe3a620&#45;&gt;node0x563eebe3a660 -->
<g id="edge5" class="edge">
<title>node0x563eebe3a620:lchild&#45;&gt;node0x563eebe3a660</title>
<path fill="none" stroke="black" stroke-width="2" d="M414,-115C414,-99.8 414,-83.07 414,-68.51"/>
<polygon fill="black" stroke="black" stroke-width="2" points="414,-58.33 418.5,-68.33 414.5,-63.33 414.5,-68.33 414,-68.33 413.5,-68.33 413.5,-63.33 409.5,-68.33 414,-58.33 414,-58.33"/>
<text text-anchor="middle" x="426.5" y="-79.8" font-family="Times,serif" font-size="14.00">Yes</text>
</g>
<!-- node0x563eebe3a6a0 -->
<g id="node7" class="node">
<title>node0x563eebe3a6a0</title>
<polygon fill="lightskyblue" stroke="transparent" points="508,-30 508,-51 614,-51 614,-30 508,-30"/>
<polygon fill="none" stroke="black" points="508,-30 508,-51 614,-51 614,-30 508,-30"/>
<text text-anchor="start" x="543" y="-36.8" font-family="Times,serif" font-size="14.00">linux</text>
<polygon fill="none" stroke="black" points="508,-7 508,-28 557,-28 557,-7 508,-7"/>
<text text-anchor="start" x="511" y="-13.8" font-family="Times,serif" font-size="14.00">L:(nil)</text>
<polygon fill="none" stroke="black" points="559,-7 559,-28 614,-28 614,-7 559,-7"/>
<text text-anchor="start" x="562" y="-13.8" font-family="Times,serif" font-size="14.00">R: (nil)</text>
<polygon fill="none" stroke="black" points="505,-4 505,-54 617,-54 617,-4 505,-4"/>
</g>
<!-- node0x563eebe3a620&#45;&gt;node0x563eebe3a6a0 -->
<g id="edge6" class="edge">
<title>node0x563eebe3a620:rchild&#45;&gt;node0x563eebe3a6a0</title>
<path fill="none" stroke="black" stroke-width="2" d="M561,-115C561,-99.8 561,-83.07 561,-68.51"/>
<polygon fill="black" stroke="black" stroke-width="2" points="561,-58.33 565.5,-68.33 561.5,-63.33 561.5,-68.33 561,-68.33 560.5,-68.33 560.5,-63.33 556.5,-68.33 561,-58.33 561,-58.33"/>
<text text-anchor="middle" x="571.5" y="-79.8" font-family="Times,serif" font-size="14.00">No</text>
</g>
</g>
</svg>
