<?xml version="1.0" encoding="UTF-8" standalone="no"?>
<!DOCTYPE svg PUBLIC "-//W3C//DTD SVG 1.1//EN"
 "http://www.w3.org/Graphics/SVG/1.1/DTD/svg11.dtd">
<!-- Generated by graphviz version 2.43.0 (0)
 -->
<!-- Title: dump_graph Pages: 1 -->
<svg width="943pt" height="502pt"
 viewBox="0.00 0.00 943.00 502.00" xmlns="http://www.w3.org/2000/svg" xmlns:xlink="http://www.w3.org/1999/xlink">
<g id="graph0" class="graph" transform="scale(1 1) rotate(0) translate(4 498)">
<title>dump_graph</title>
<polygon fill="white" stroke="transparent" points="-4,4 -4,-498 939,-498 939,4 -4,4"/>
<!-- node0x562cd0a543c0 -->
<g id="node1" class="node">
<title>node0x562cd0a543c0</title>
<polygon fill="lightskyblue" stroke="transparent" points="29.5,-248 29.5,-269 135.5,-269 135.5,-248 29.5,-248"/>
<polygon fill="none" stroke="black" points="29.5,-248 29.5,-269 135.5,-269 135.5,-248 29.5,-248"/>
<text text-anchor="start" x="64.5" y="-254.8" font-family="Times,serif" font-size="14.00">linux</text>
<polygon fill="none" stroke="black" points="29.5,-225 29.5,-246 78.5,-246 78.5,-225 29.5,-225"/>
<text text-anchor="start" x="32.5" y="-231.8" font-family="Times,serif" font-size="14.00">L:(nil)</text>
<polygon fill="none" stroke="black" points="80.5,-225 80.5,-246 135.5,-246 135.5,-225 80.5,-225"/>
<text text-anchor="start" x="83.5" y="-231.8" font-family="Times,serif" font-size="14.00">R: (nil)</text>
<polygon fill="none" stroke="black" points="26.5,-222 26.5,-272 138.5,-272 138.5,-222 26.5,-222"/>
</g>
<!-- node0x562cd0a54380 -->
<g id="node2" class="node">
<title>node0x562cd0a54380</title>
<polygon fill="lightskyblue" stroke="transparent" points="11.5,-357 11.5,-378 304.5,-378 304.5,-357 11.5,-357"/>
<polygon fill="none" stroke="black" points="11.5,-357 11.5,-378 304.5,-378 304.5,-357 11.5,-357"/>
<text text-anchor="start" x="76.5" y="-363.8" font-family="Times,serif" font-size="14.00">good operation system</text>
<polygon fill="none" stroke="black" points="11.5,-334 11.5,-355 153.5,-355 153.5,-334 11.5,-334"/>
<text text-anchor="start" x="14.5" y="-340.8" font-family="Times,serif" font-size="14.00">L:0x562cd0a543c0</text>
<polygon fill="none" stroke="black" points="155.5,-334 155.5,-355 304.5,-355 304.5,-334 155.5,-334"/>
<text text-anchor="start" x="158.5" y="-340.8" font-family="Times,serif" font-size="14.00">R: 0x562cd0a54400</text>
<polygon fill="none" stroke="black" points="8,-331 8,-381 307,-381 307,-331 8,-331"/>
</g>
<!-- node0x562cd0a54380&#45;&gt;node0x562cd0a543c0 -->
<g id="edge1" class="edge">
<title>node0x562cd0a54380:lchild&#45;&gt;node0x562cd0a543c0</title>
<path fill="none" stroke="black" stroke-width="2" d="M82.5,-333C82.5,-317.8 82.5,-301.07 82.5,-286.51"/>
<polygon fill="black" stroke="black" stroke-width="2" points="82.5,-276.33 87,-286.33 83,-281.33 83,-286.33 82.5,-286.33 82,-286.33 82,-281.33 78,-286.33 82.5,-276.33 82.5,-276.33"/>
<text text-anchor="middle" x="95" y="-297.8" font-family="Times,serif" font-size="14.00">Yes</text>
</g>
<!-- node0x562cd0a54400 -->
<g id="node3" class="node">
<title>node0x562cd0a54400</title>
<polygon fill="lightskyblue" stroke="transparent" points="177.5,-248 177.5,-269 283.5,-269 283.5,-248 177.5,-248"/>
<polygon fill="none" stroke="black" points="177.5,-248 177.5,-269 283.5,-269 283.5,-248 177.5,-248"/>
<text text-anchor="start" x="199" y="-254.8" font-family="Times,serif" font-size="14.00">windows</text>
<polygon fill="none" stroke="black" points="177.5,-225 177.5,-246 226.5,-246 226.5,-225 177.5,-225"/>
<text text-anchor="start" x="180.5" y="-231.8" font-family="Times,serif" font-size="14.00">L:(nil)</text>
<polygon fill="none" stroke="black" points="228.5,-225 228.5,-246 283.5,-246 283.5,-225 228.5,-225"/>
<text text-anchor="start" x="231.5" y="-231.8" font-family="Times,serif" font-size="14.00">R: (nil)</text>
<polygon fill="none" stroke="black" points="174.5,-222 174.5,-272 286.5,-272 286.5,-222 174.5,-222"/>
</g>
<!-- node0x562cd0a54380&#45;&gt;node0x562cd0a54400 -->
<g id="edge2" class="edge">
<title>node0x562cd0a54380:rchild&#45;&gt;node0x562cd0a54400</title>
<path fill="none" stroke="black" stroke-width="2" d="M230.5,-333C230.5,-317.8 230.5,-301.07 230.5,-286.51"/>
<polygon fill="black" stroke="black" stroke-width="2" points="230.5,-276.33 235,-286.33 231,-281.33 231,-286.33 230.5,-286.33 230,-286.33 230,-281.33 226,-286.33 230.5,-276.33 230.5,-276.33"/>
<text text-anchor="middle" x="241" y="-297.8" font-family="Times,serif" font-size="14.00">No</text>
</g>
<!-- node0x562cd0a54340 -->
<g id="node4" class="node">
<title>node0x562cd0a54340</title>
<polygon fill="lightskyblue" stroke="transparent" points="155.5,-466 155.5,-487 449.5,-487 449.5,-466 155.5,-466"/>
<polygon fill="none" stroke="black" points="155.5,-466 155.5,-487 449.5,-487 449.5,-466 155.5,-466"/>
<text text-anchor="start" x="266.5" y="-472.8" font-family="Times,serif" font-size="14.00">inanimate</text>
<polygon fill="none" stroke="black" points="155.5,-443 155.5,-464 298.5,-464 298.5,-443 155.5,-443"/>
<text text-anchor="start" x="158.5" y="-449.8" font-family="Times,serif" font-size="14.00">L:0x562cd0a54380</text>
<polygon fill="none" stroke="black" points="300.5,-443 300.5,-464 449.5,-464 449.5,-443 300.5,-443"/>
<text text-anchor="start" x="303.5" y="-449.8" font-family="Times,serif" font-size="14.00">R: 0x562cd0a54440</text>
<polygon fill="none" stroke="black" points="152.5,-440 152.5,-490 452.5,-490 452.5,-440 152.5,-440"/>
</g>
<!-- node0x562cd0a54340&#45;&gt;node0x562cd0a54380 -->
<g id="edge3" class="edge">
<title>node0x562cd0a54340:lchild&#45;&gt;node0x562cd0a54380</title>
<path fill="none" stroke="black" stroke-width="2" d="M154.5,-453C130.07,-453 134.59,-421.56 142.92,-394.66"/>
<polygon fill="black" stroke="black" stroke-width="2" points="146.11,-385.03 147.24,-395.93 145.01,-389.93 143.44,-394.67 142.96,-394.52 142.49,-394.36 144.06,-389.61 138.69,-393.1 146.11,-385.03 146.11,-385.03"/>
<text text-anchor="middle" x="153" y="-406.8" font-family="Times,serif" font-size="14.00">Yes</text>
</g>
<!-- node0x562cd0a54440 -->
<g id="node5" class="node">
<title>node0x562cd0a54440</title>
<polygon fill="lightskyblue" stroke="transparent" points="344.5,-357 344.5,-378 637.5,-378 637.5,-357 344.5,-357"/>
<polygon fill="none" stroke="black" points="344.5,-357 344.5,-378 637.5,-378 637.5,-357 344.5,-357"/>
<text text-anchor="start" x="426" y="-363.8" font-family="Times,serif" font-size="14.00">chemistry teacher</text>
<polygon fill="none" stroke="black" points="344.5,-334 344.5,-355 487.5,-355 487.5,-334 344.5,-334"/>
<text text-anchor="start" x="347.5" y="-340.8" font-family="Times,serif" font-size="14.00">L:0x562cd0a54480</text>
<polygon fill="none" stroke="black" points="489.5,-334 489.5,-355 637.5,-355 637.5,-334 489.5,-334"/>
<text text-anchor="start" x="492.5" y="-340.8" font-family="Times,serif" font-size="14.00">R: 0x562cd0a544c0</text>
<polygon fill="none" stroke="black" points="341,-331 341,-381 640,-381 640,-331 341,-331"/>
</g>
<!-- node0x562cd0a54340&#45;&gt;node0x562cd0a54440 -->
<g id="edge4" class="edge">
<title>node0x562cd0a54340:rchild&#45;&gt;node0x562cd0a54440</title>
<path fill="none" stroke="black" stroke-width="2" d="M450.5,-453C476.84,-453 486.15,-421.83 489.28,-395.02"/>
<polygon fill="black" stroke="black" stroke-width="2" points="490.21,-385.03 493.77,-395.4 490.24,-390.05 489.78,-395.03 489.29,-394.98 488.79,-394.94 489.25,-389.96 484.81,-394.57 490.21,-385.03 490.21,-385.03"/>
<text text-anchor="middle" x="499" y="-406.8" font-family="Times,serif" font-size="14.00">No</text>
</g>
<!-- node0x562cd0a54480 -->
<g id="node6" class="node">
<title>node0x562cd0a54480</title>
<polygon fill="lightskyblue" stroke="transparent" points="342.5,-248 342.5,-269 448.5,-269 448.5,-248 342.5,-248"/>
<polygon fill="none" stroke="black" points="342.5,-248 342.5,-269 448.5,-269 448.5,-248 342.5,-248"/>
<text text-anchor="start" x="348.5" y="-254.8" font-family="Times,serif" font-size="14.00">Walter White</text>
<polygon fill="none" stroke="black" points="342.5,-225 342.5,-246 391.5,-246 391.5,-225 342.5,-225"/>
<text text-anchor="start" x="345.5" y="-231.8" font-family="Times,serif" font-size="14.00">L:(nil)</text>
<polygon fill="none" stroke="black" points="393.5,-225 393.5,-246 448.5,-246 448.5,-225 393.5,-225"/>
<text text-anchor="start" x="396.5" y="-231.8" font-family="Times,serif" font-size="14.00">R: (nil)</text>
<polygon fill="none" stroke="black" points="339.5,-222 339.5,-272 451.5,-272 451.5,-222 339.5,-222"/>
</g>
<!-- node0x562cd0a54440&#45;&gt;node0x562cd0a54480 -->
<g id="edge5" class="edge">
<title>node0x562cd0a54440:lchild&#45;&gt;node0x562cd0a54480</title>
<path fill="none" stroke="black" stroke-width="2" d="M415.5,-333C415.5,-317.36 412.25,-300.51 408.37,-285.98"/>
<polygon fill="black" stroke="black" stroke-width="2" points="405.62,-276.33 412.69,-284.71 407.47,-281 408.84,-285.81 408.36,-285.95 407.88,-286.08 406.51,-281.28 404.03,-287.18 405.62,-276.33 405.62,-276.33"/>
<text text-anchor="middle" x="426" y="-297.8" font-family="Times,serif" font-size="14.00">Yes</text>
</g>
<!-- node0x562cd0a544c0 -->
<g id="node7" class="node">
<title>node0x562cd0a544c0</title>
<polygon fill="lightskyblue" stroke="transparent" points="488.5,-248 488.5,-269 782.5,-269 782.5,-248 488.5,-248"/>
<polygon fill="none" stroke="black" points="488.5,-248 488.5,-269 782.5,-269 782.5,-248 488.5,-248"/>
<text text-anchor="start" x="578.5" y="-254.8" font-family="Times,serif" font-size="14.00">soviet detective</text>
<polygon fill="none" stroke="black" points="488.5,-225 488.5,-246 631.5,-246 631.5,-225 488.5,-225"/>
<text text-anchor="start" x="491.5" y="-231.8" font-family="Times,serif" font-size="14.00">L:0x562cd0a54500</text>
<polygon fill="none" stroke="black" points="633.5,-225 633.5,-246 782.5,-246 782.5,-225 633.5,-225"/>
<text text-anchor="start" x="636.5" y="-231.8" font-family="Times,serif" font-size="14.00">R: 0x562cd0a54540</text>
<polygon fill="none" stroke="black" points="485.5,-222 485.5,-272 785.5,-272 785.5,-222 485.5,-222"/>
</g>
<!-- node0x562cd0a54440&#45;&gt;node0x562cd0a544c0 -->
<g id="edge6" class="edge">
<title>node0x562cd0a54440:rchild&#45;&gt;node0x562cd0a544c0</title>
<path fill="none" stroke="black" stroke-width="2" d="M563.5,-333C563.5,-314.07 574.02,-297.19 587.03,-283.56"/>
<polygon fill="black" stroke="black" stroke-width="2" points="594.45,-276.33 590.43,-286.53 591.22,-280.18 587.64,-283.67 587.29,-283.31 586.94,-282.95 590.52,-279.46 584.15,-280.08 594.45,-276.33 594.45,-276.33"/>
<text text-anchor="middle" x="588" y="-297.8" font-family="Times,serif" font-size="14.00">No</text>
</g>
<!-- node0x562cd0a54500 -->
<g id="node9" class="node">
<title>node0x562cd0a54500</title>
<polygon fill="lightskyblue" stroke="transparent" points="298.5,-139 298.5,-160 590.5,-160 590.5,-139 298.5,-139"/>
<polygon fill="none" stroke="black" points="298.5,-139 298.5,-160 590.5,-160 590.5,-139 298.5,-139"/>
<text text-anchor="start" x="413.5" y="-145.8" font-family="Times,serif" font-size="14.00">so tough</text>
<polygon fill="none" stroke="black" points="298.5,-116 298.5,-137 440.5,-137 440.5,-116 298.5,-116"/>
<text text-anchor="start" x="301.5" y="-122.8" font-family="Times,serif" font-size="14.00">L:0x562cd0a553e0</text>
<polygon fill="none" stroke="black" points="442.5,-116 442.5,-137 590.5,-137 590.5,-116 442.5,-116"/>
<text text-anchor="start" x="445.5" y="-122.8" font-family="Times,serif" font-size="14.00">R: 0x562cd0a553a0</text>
<polygon fill="none" stroke="black" points="295.5,-113 295.5,-163 593.5,-163 593.5,-113 295.5,-113"/>
</g>
<!-- node0x562cd0a544c0&#45;&gt;node0x562cd0a54500 -->
<g id="edge9" class="edge">
<title>node0x562cd0a544c0:lchild&#45;&gt;node0x562cd0a54500</title>
<path fill="none" stroke="black" stroke-width="2" d="M559.5,-224C559.5,-202.26 546.04,-185.44 528.33,-172.73"/>
<polygon fill="black" stroke="black" stroke-width="2" points="519.92,-167.17 530.75,-168.93 524.37,-169.51 528.54,-172.27 528.27,-172.69 527.99,-173.1 523.82,-170.35 525.78,-176.44 519.92,-167.17 519.92,-167.17"/>
<text text-anchor="middle" x="566" y="-188.8" font-family="Times,serif" font-size="14.00">Yes</text>
</g>
<!-- node0x562cd0a54540 -->
<g id="node11" class="node">
<title>node0x562cd0a54540</title>
<polygon fill="lightskyblue" stroke="transparent" points="631.5,-139 631.5,-160 924.5,-160 924.5,-139 631.5,-139"/>
<polygon fill="none" stroke="black" points="631.5,-139 631.5,-160 924.5,-160 924.5,-139 631.5,-139"/>
<text text-anchor="start" x="753.5" y="-145.8" font-family="Times,serif" font-size="14.00">wizard</text>
<polygon fill="none" stroke="black" points="631.5,-116 631.5,-137 774.5,-137 774.5,-116 631.5,-116"/>
<text text-anchor="start" x="634.5" y="-122.8" font-family="Times,serif" font-size="14.00">L:0x562cd0a54580</text>
<polygon fill="none" stroke="black" points="776.5,-116 776.5,-137 924.5,-137 924.5,-116 776.5,-116"/>
<text text-anchor="start" x="779.5" y="-122.8" font-family="Times,serif" font-size="14.00">R: 0x562cd0a545c0</text>
<polygon fill="none" stroke="black" points="628,-113 628,-163 927,-163 927,-113 628,-113"/>
</g>
<!-- node0x562cd0a544c0&#45;&gt;node0x562cd0a54540 -->
<g id="edge10" class="edge">
<title>node0x562cd0a544c0:rchild&#45;&gt;node0x562cd0a54540</title>
<path fill="none" stroke="black" stroke-width="2" d="M783.5,-235C807.97,-235 802.46,-203.56 793.28,-176.66"/>
<polygon fill="black" stroke="black" stroke-width="2" points="789.78,-167.03 797.42,-174.89 791.96,-171.55 793.66,-176.25 793.19,-176.42 792.72,-176.59 791.02,-171.9 788.96,-177.96 789.78,-167.03 789.78,-167.03"/>
<text text-anchor="middle" x="810" y="-188.8" font-family="Times,serif" font-size="14.00">No</text>
</g>
<!-- node0x562cd0a553e0 -->
<g id="node8" class="node">
<title>node0x562cd0a553e0</title>
<polygon fill="lightskyblue" stroke="transparent" points="276.5,-30 276.5,-51 437.5,-51 437.5,-30 276.5,-30"/>
<polygon fill="none" stroke="black" points="276.5,-30 276.5,-51 437.5,-51 437.5,-30 276.5,-30"/>
<text text-anchor="start" x="280.5" y="-36.8" font-family="Times,serif" font-size="14.00">PRONIN THE MAJOR</text>
<polygon fill="none" stroke="black" points="276.5,-7 276.5,-28 352.5,-28 352.5,-7 276.5,-7"/>
<text text-anchor="start" x="293" y="-13.8" font-family="Times,serif" font-size="14.00">L:(nil)</text>
<polygon fill="none" stroke="black" points="354.5,-7 354.5,-28 437.5,-28 437.5,-7 354.5,-7"/>
<text text-anchor="start" x="371.5" y="-13.8" font-family="Times,serif" font-size="14.00">R: (nil)</text>
<polygon fill="none" stroke="black" points="273,-4 273,-54 440,-54 440,-4 273,-4"/>
</g>
<!-- node0x562cd0a54500&#45;&gt;node0x562cd0a553e0 -->
<g id="edge7" class="edge">
<title>node0x562cd0a54500:lchild&#45;&gt;node0x562cd0a553e0</title>
<path fill="none" stroke="black" stroke-width="2" d="M369.5,-115C369.5,-99.62 367.4,-82.86 364.88,-68.32"/>
<polygon fill="black" stroke="black" stroke-width="2" points="363,-58.17 369.25,-67.18 364.4,-62.99 365.31,-67.91 364.82,-68 364.33,-68.09 363.42,-63.18 360.4,-68.82 363,-58.17 363,-58.17"/>
<text text-anchor="middle" x="381" y="-79.8" font-family="Times,serif" font-size="14.00">Yes</text>
</g>
<!-- node0x562cd0a553a0 -->
<g id="node10" class="node">
<title>node0x562cd0a553a0</title>
<polygon fill="lightskyblue" stroke="transparent" points="477.5,-30 477.5,-51 583.5,-51 583.5,-30 477.5,-30"/>
<polygon fill="none" stroke="black" points="477.5,-30 477.5,-51 583.5,-51 583.5,-30 477.5,-30"/>
<text text-anchor="start" x="503" y="-36.8" font-family="Times,serif" font-size="14.00">Varnike</text>
<polygon fill="none" stroke="black" points="477.5,-7 477.5,-28 526.5,-28 526.5,-7 477.5,-7"/>
<text text-anchor="start" x="480.5" y="-13.8" font-family="Times,serif" font-size="14.00">L:(nil)</text>
<polygon fill="none" stroke="black" points="528.5,-7 528.5,-28 583.5,-28 583.5,-7 528.5,-7"/>
<text text-anchor="start" x="531.5" y="-13.8" font-family="Times,serif" font-size="14.00">R: (nil)</text>
<polygon fill="none" stroke="black" points="474.5,-4 474.5,-54 586.5,-54 586.5,-4 474.5,-4"/>
</g>
<!-- node0x562cd0a54500&#45;&gt;node0x562cd0a553a0 -->
<g id="edge8" class="edge">
<title>node0x562cd0a54500:rchild&#45;&gt;node0x562cd0a553a0</title>
<path fill="none" stroke="black" stroke-width="2" d="M516.5,-115C516.5,-99.6 518.77,-82.83 521.48,-68.29"/>
<polygon fill="black" stroke="black" stroke-width="2" points="523.5,-58.14 525.96,-68.83 523.01,-63.14 522.03,-68.05 521.54,-67.95 521.05,-67.85 522.03,-62.95 517.13,-67.07 523.5,-58.14 523.5,-58.14"/>
<text text-anchor="middle" x="531" y="-79.8" font-family="Times,serif" font-size="14.00">No</text>
</g>
<!-- node0x562cd0a54580 -->
<g id="node12" class="node">
<title>node0x562cd0a54580</title>
<polygon fill="lightskyblue" stroke="transparent" points="649.5,-30 649.5,-51 755.5,-51 755.5,-30 649.5,-30"/>
<polygon fill="none" stroke="black" points="649.5,-30 649.5,-51 755.5,-51 755.5,-30 649.5,-30"/>
<text text-anchor="start" x="657" y="-36.8" font-family="Times,serif" font-size="14.00">Harry Potter</text>
<polygon fill="none" stroke="black" points="649.5,-7 649.5,-28 698.5,-28 698.5,-7 649.5,-7"/>
<text text-anchor="start" x="652.5" y="-13.8" font-family="Times,serif" font-size="14.00">L:(nil)</text>
<polygon fill="none" stroke="black" points="700.5,-7 700.5,-28 755.5,-28 755.5,-7 700.5,-7"/>
<text text-anchor="start" x="703.5" y="-13.8" font-family="Times,serif" font-size="14.00">R: (nil)</text>
<polygon fill="none" stroke="black" points="646.5,-4 646.5,-54 758.5,-54 758.5,-4 646.5,-4"/>
</g>
<!-- node0x562cd0a54540&#45;&gt;node0x562cd0a54580 -->
<g id="edge11" class="edge">
<title>node0x562cd0a54540:lchild&#45;&gt;node0x562cd0a54580</title>
<path fill="none" stroke="black" stroke-width="2" d="M702.5,-115C702.5,-99.8 702.5,-83.07 702.5,-68.51"/>
<polygon fill="black" stroke="black" stroke-width="2" points="702.5,-58.33 707,-68.33 703,-63.33 703,-68.33 702.5,-68.33 702,-68.33 702,-63.33 698,-68.33 702.5,-58.33 702.5,-58.33"/>
<text text-anchor="middle" x="715" y="-79.8" font-family="Times,serif" font-size="14.00">Yes</text>
</g>
<!-- node0x562cd0a545c0 -->
<g id="node13" class="node">
<title>node0x562cd0a545c0</title>
<polygon fill="lightskyblue" stroke="transparent" points="797.5,-30 797.5,-51 903.5,-51 903.5,-30 797.5,-30"/>
<polygon fill="none" stroke="black" points="797.5,-30 797.5,-51 903.5,-51 903.5,-30 797.5,-30"/>
<text text-anchor="start" x="811.5" y="-36.8" font-family="Times,serif" font-size="14.00">Rust Kolhe</text>
<polygon fill="none" stroke="black" points="797.5,-7 797.5,-28 846.5,-28 846.5,-7 797.5,-7"/>
<text text-anchor="start" x="800.5" y="-13.8" font-family="Times,serif" font-size="14.00">L:(nil)</text>
<polygon fill="none" stroke="black" points="848.5,-7 848.5,-28 903.5,-28 903.5,-7 848.5,-7"/>
<text text-anchor="start" x="851.5" y="-13.8" font-family="Times,serif" font-size="14.00">R: (nil)</text>
<polygon fill="none" stroke="black" points="794.5,-4 794.5,-54 906.5,-54 906.5,-4 794.5,-4"/>
</g>
<!-- node0x562cd0a54540&#45;&gt;node0x562cd0a545c0 -->
<g id="edge12" class="edge">
<title>node0x562cd0a54540:rchild&#45;&gt;node0x562cd0a545c0</title>
<path fill="none" stroke="black" stroke-width="2" d="M850.5,-115C850.5,-99.8 850.5,-83.07 850.5,-68.51"/>
<polygon fill="black" stroke="black" stroke-width="2" points="850.5,-58.33 855,-68.33 851,-63.33 851,-68.33 850.5,-68.33 850,-68.33 850,-63.33 846,-68.33 850.5,-58.33 850.5,-58.33"/>
<text text-anchor="middle" x="861" y="-79.8" font-family="Times,serif" font-size="14.00">No</text>
</g>
</g>
</svg>
