<?xml version="1.0" encoding="UTF-8" standalone="no"?>
<!DOCTYPE svg PUBLIC "-//W3C//DTD SVG 1.1//EN"
 "http://www.w3.org/Graphics/SVG/1.1/DTD/svg11.dtd">
<!-- Generated by graphviz version 2.43.0 (0)
 -->
<!-- Title: dump_graph Pages: 1 -->
<svg width="617pt" height="393pt"
 viewBox="0.00 0.00 616.50 393.00" xmlns="http://www.w3.org/2000/svg" xmlns:xlink="http://www.w3.org/1999/xlink">
<g id="graph0" class="graph" transform="scale(1 1) rotate(0) translate(4 389)">
<title>dump_graph</title>
<polygon fill="white" stroke="transparent" points="-4,4 -4,-389 612.5,-389 612.5,4 -4,4"/>
<!-- node0x5653754b0690 -->
<g id="node1" class="node">
<title>node0x5653754b0690</title>
<polygon fill="lightskyblue" stroke="transparent" points="30.5,-30 30.5,-51 136.5,-51 136.5,-30 30.5,-30"/>
<polygon fill="none" stroke="black" points="30.5,-30 30.5,-51 136.5,-51 136.5,-30 30.5,-30"/>
<text text-anchor="start" x="56" y="-36.8" font-family="Times,serif" font-size="14.00">CentOS</text>
<polygon fill="none" stroke="black" points="30.5,-7 30.5,-28 79.5,-28 79.5,-7 30.5,-7"/>
<text text-anchor="start" x="33.5" y="-13.8" font-family="Times,serif" font-size="14.00">L:(nil)</text>
<polygon fill="none" stroke="black" points="81.5,-7 81.5,-28 136.5,-28 136.5,-7 81.5,-7"/>
<text text-anchor="start" x="84.5" y="-13.8" font-family="Times,serif" font-size="14.00">R: (nil)</text>
<polygon fill="none" stroke="black" points="27.5,-4 27.5,-54 139.5,-54 139.5,-4 27.5,-4"/>
</g>
<!-- node0x5653754b0660 -->
<g id="node2" class="node">
<title>node0x5653754b0660</title>
<polygon fill="lightskyblue" stroke="transparent" points="11.5,-139 11.5,-160 308.5,-160 308.5,-139 11.5,-139"/>
<polygon fill="none" stroke="black" points="11.5,-139 11.5,-160 308.5,-160 308.5,-139 11.5,-139"/>
<text text-anchor="start" x="100" y="-145.8" font-family="Times,serif" font-size="14.00">Doesn&#39;t_have_ui </text>
<polygon fill="none" stroke="black" points="11.5,-116 11.5,-137 156.5,-137 156.5,-116 11.5,-116"/>
<text text-anchor="start" x="14.5" y="-122.8" font-family="Times,serif" font-size="14.00">L:0x5653754b0690</text>
<polygon fill="none" stroke="black" points="158.5,-116 158.5,-137 308.5,-137 308.5,-116 158.5,-116"/>
<text text-anchor="start" x="161.5" y="-122.8" font-family="Times,serif" font-size="14.00">R: 0x5653754b06c0</text>
<polygon fill="none" stroke="black" points="8,-113 8,-163 311,-163 311,-113 8,-113"/>
</g>
<!-- node0x5653754b0660&#45;&gt;node0x5653754b0690 -->
<g id="edge1" class="edge">
<title>node0x5653754b0660:lchild&#45;&gt;node0x5653754b0690</title>
<path fill="none" stroke="black" stroke-width="2" d="M83.5,-115C83.5,-99.8 83.5,-83.07 83.5,-68.51"/>
<polygon fill="black" stroke="black" stroke-width="2" points="83.5,-58.33 88,-68.33 84,-63.33 84,-68.33 83.5,-68.33 83,-68.33 83,-63.33 79,-68.33 83.5,-58.33 83.5,-58.33"/>
<text text-anchor="middle" x="96" y="-79.8" font-family="Times,serif" font-size="14.00">Yes</text>
</g>
<!-- node0x5653754b06c0 -->
<g id="node3" class="node">
<title>node0x5653754b06c0</title>
<polygon fill="lightskyblue" stroke="transparent" points="180.5,-30 180.5,-51 286.5,-51 286.5,-30 180.5,-30"/>
<polygon fill="none" stroke="black" points="180.5,-30 180.5,-51 286.5,-51 286.5,-30 180.5,-30"/>
<text text-anchor="start" x="202" y="-36.8" font-family="Times,serif" font-size="14.00">windows</text>
<polygon fill="none" stroke="black" points="180.5,-7 180.5,-28 229.5,-28 229.5,-7 180.5,-7"/>
<text text-anchor="start" x="183.5" y="-13.8" font-family="Times,serif" font-size="14.00">L:(nil)</text>
<polygon fill="none" stroke="black" points="231.5,-7 231.5,-28 286.5,-28 286.5,-7 231.5,-7"/>
<text text-anchor="start" x="234.5" y="-13.8" font-family="Times,serif" font-size="14.00">R: (nil)</text>
<polygon fill="none" stroke="black" points="177.5,-4 177.5,-54 289.5,-54 289.5,-4 177.5,-4"/>
</g>
<!-- node0x5653754b0660&#45;&gt;node0x5653754b06c0 -->
<g id="edge2" class="edge">
<title>node0x5653754b0660:rchild&#45;&gt;node0x5653754b06c0</title>
<path fill="none" stroke="black" stroke-width="2" d="M233.5,-115C233.5,-99.8 233.5,-83.07 233.5,-68.51"/>
<polygon fill="black" stroke="black" stroke-width="2" points="233.5,-58.33 238,-68.33 234,-63.33 234,-68.33 233.5,-68.33 233,-68.33 233,-63.33 229,-68.33 233.5,-58.33 233.5,-58.33"/>
<text text-anchor="middle" x="244" y="-79.8" font-family="Times,serif" font-size="14.00">No</text>
</g>
<!-- node0x5653754b0630 -->
<g id="node4" class="node">
<title>node0x5653754b0630</title>
<polygon fill="lightskyblue" stroke="transparent" points="156.5,-248 156.5,-269 451.5,-269 451.5,-248 156.5,-248"/>
<polygon fill="none" stroke="black" points="156.5,-248 156.5,-269 451.5,-269 451.5,-248 156.5,-248"/>
<text text-anchor="start" x="259" y="-254.8" font-family="Times,serif" font-size="14.00">the worst? &#160;&#160;</text>
<polygon fill="none" stroke="black" points="156.5,-225 156.5,-246 301.5,-246 301.5,-225 156.5,-225"/>
<text text-anchor="start" x="159.5" y="-231.8" font-family="Times,serif" font-size="14.00">L:0x5653754b0660</text>
<polygon fill="none" stroke="black" points="303.5,-225 303.5,-246 451.5,-246 451.5,-225 303.5,-225"/>
<text text-anchor="start" x="306.5" y="-231.8" font-family="Times,serif" font-size="14.00">R: 0x5653754b06f0</text>
<polygon fill="none" stroke="black" points="153,-222 153,-272 454,-272 454,-222 153,-222"/>
</g>
<!-- node0x5653754b0630&#45;&gt;node0x5653754b0660 -->
<g id="edge3" class="edge">
<title>node0x5653754b0630:lchild&#45;&gt;node0x5653754b0660</title>
<path fill="none" stroke="black" stroke-width="2" d="M155.5,-235C131.06,-235 135.9,-203.56 144.52,-176.66"/>
<polygon fill="black" stroke="black" stroke-width="2" points="147.82,-167.03 148.84,-177.94 146.67,-171.92 145.05,-176.65 144.58,-176.49 144.11,-176.32 145.72,-171.59 140.32,-175.03 147.82,-167.03 147.82,-167.03"/>
<text text-anchor="middle" x="154" y="-188.8" font-family="Times,serif" font-size="14.00">Yes</text>
</g>
<!-- node0x5653754b06f0 -->
<g id="node5" class="node">
<title>node0x5653754b06f0</title>
<polygon fill="lightskyblue" stroke="transparent" points="348.5,-139 348.5,-160 454.5,-160 454.5,-139 348.5,-139"/>
<polygon fill="none" stroke="black" points="348.5,-139 348.5,-160 454.5,-160 454.5,-139 348.5,-139"/>
<text text-anchor="start" x="378.5" y="-145.8" font-family="Times,serif" font-size="14.00">macos</text>
<polygon fill="none" stroke="black" points="348.5,-116 348.5,-137 397.5,-137 397.5,-116 348.5,-116"/>
<text text-anchor="start" x="351.5" y="-122.8" font-family="Times,serif" font-size="14.00">L:(nil)</text>
<polygon fill="none" stroke="black" points="399.5,-116 399.5,-137 454.5,-137 454.5,-116 399.5,-116"/>
<text text-anchor="start" x="402.5" y="-122.8" font-family="Times,serif" font-size="14.00">R: (nil)</text>
<polygon fill="none" stroke="black" points="345.5,-113 345.5,-163 457.5,-163 457.5,-113 345.5,-113"/>
</g>
<!-- node0x5653754b0630&#45;&gt;node0x5653754b06f0 -->
<g id="edge4" class="edge">
<title>node0x5653754b0630:rchild&#45;&gt;node0x5653754b06f0</title>
<path fill="none" stroke="black" stroke-width="2" d="M377.5,-224C377.5,-208.18 381.4,-191.3 386.05,-176.79"/>
<polygon fill="black" stroke="black" stroke-width="2" points="389.36,-167.16 390.37,-178.08 388.21,-172.05 386.58,-176.78 386.11,-176.62 385.64,-176.46 387.26,-171.73 381.86,-175.16 389.36,-167.16 389.36,-167.16"/>
<text text-anchor="middle" x="394" y="-188.8" font-family="Times,serif" font-size="14.00">No</text>
</g>
<!-- node0x5653754b0600 -->
<g id="node6" class="node">
<title>node0x5653754b0600</title>
<polygon fill="lightskyblue" stroke="transparent" points="298.5,-357 298.5,-378 596.5,-378 596.5,-357 298.5,-357"/>
<polygon fill="none" stroke="black" points="298.5,-357 298.5,-378 596.5,-378 596.5,-357 298.5,-357"/>
<text text-anchor="start" x="395.5" y="-363.8" font-family="Times,serif" font-size="14.00">shit system? &#160;&#160;</text>
<polygon fill="none" stroke="black" points="298.5,-334 298.5,-355 443.5,-355 443.5,-334 298.5,-334"/>
<text text-anchor="start" x="301.5" y="-340.8" font-family="Times,serif" font-size="14.00">L:0x5653754b0630</text>
<polygon fill="none" stroke="black" points="445.5,-334 445.5,-355 596.5,-355 596.5,-334 445.5,-334"/>
<text text-anchor="start" x="448.5" y="-340.8" font-family="Times,serif" font-size="14.00">R: 0x5653754b0720</text>
<polygon fill="none" stroke="black" points="295.5,-331 295.5,-381 599.5,-381 599.5,-331 295.5,-331"/>
</g>
<!-- node0x5653754b0600&#45;&gt;node0x5653754b0630 -->
<g id="edge5" class="edge">
<title>node0x5653754b0600:lchild&#45;&gt;node0x5653754b0630</title>
<path fill="none" stroke="black" stroke-width="2" d="M297.5,-344C273.03,-344 278.54,-312.56 287.72,-285.66"/>
<polygon fill="black" stroke="black" stroke-width="2" points="291.22,-276.03 292.04,-286.96 289.98,-280.9 288.28,-285.59 287.81,-285.42 287.34,-285.25 289.04,-280.55 283.58,-283.89 291.22,-276.03 291.22,-276.03"/>
<text text-anchor="middle" x="297" y="-297.8" font-family="Times,serif" font-size="14.00">Yes</text>
</g>
<!-- node0x5653754b0720 -->
<g id="node7" class="node">
<title>node0x5653754b0720</title>
<polygon fill="lightskyblue" stroke="transparent" points="491.5,-248 491.5,-269 597.5,-269 597.5,-248 491.5,-248"/>
<polygon fill="none" stroke="black" points="491.5,-248 491.5,-269 597.5,-269 597.5,-248 491.5,-248"/>
<text text-anchor="start" x="526.5" y="-254.8" font-family="Times,serif" font-size="14.00">linux</text>
<polygon fill="none" stroke="black" points="491.5,-225 491.5,-246 540.5,-246 540.5,-225 491.5,-225"/>
<text text-anchor="start" x="494.5" y="-231.8" font-family="Times,serif" font-size="14.00">L:(nil)</text>
<polygon fill="none" stroke="black" points="542.5,-225 542.5,-246 597.5,-246 597.5,-225 542.5,-225"/>
<text text-anchor="start" x="545.5" y="-231.8" font-family="Times,serif" font-size="14.00">R: (nil)</text>
<polygon fill="none" stroke="black" points="488.5,-222 488.5,-272 600.5,-272 600.5,-222 488.5,-222"/>
</g>
<!-- node0x5653754b0600&#45;&gt;node0x5653754b0720 -->
<g id="edge6" class="edge">
<title>node0x5653754b0600:rchild&#45;&gt;node0x5653754b0720</title>
<path fill="none" stroke="black" stroke-width="2" d="M521.5,-333C521.5,-317.23 525.24,-300.36 529.7,-285.84"/>
<polygon fill="black" stroke="black" stroke-width="2" points="532.87,-276.21 534.02,-287.11 531.78,-281.11 530.22,-285.86 529.74,-285.71 529.27,-285.55 530.83,-280.8 525.47,-284.3 532.87,-276.21 532.87,-276.21"/>
<text text-anchor="middle" x="537" y="-297.8" font-family="Times,serif" font-size="14.00">No</text>
</g>
</g>
</svg>
