<?xml version="1.0" encoding="UTF-8" standalone="no"?>
<!DOCTYPE svg PUBLIC "-//W3C//DTD SVG 1.1//EN"
 "http://www.w3.org/Graphics/SVG/1.1/DTD/svg11.dtd">
<!-- Generated by graphviz version 2.43.0 (0)
 -->
<!-- Title: dump_graph Pages: 1 -->
<svg width="300pt" height="254pt"
 viewBox="0.00 0.00 300.00 254.00" xmlns="http://www.w3.org/2000/svg" xmlns:xlink="http://www.w3.org/1999/xlink">
<g id="graph0" class="graph" transform="scale(1 1) rotate(0) translate(4 250)">
<title>dump_graph</title>
<polygon fill="white" stroke="transparent" points="-4,4 -4,-250 296,-250 296,4 -4,4"/>
<!-- node0x4a5c160 -->
<g id="node1" class="node">
<title>node0x4a5c160</title>
<polygon fill="lightskyblue" stroke="transparent" points="11.5,-30 11.5,-51 94.5,-51 94.5,-30 11.5,-30"/>
<polygon fill="none" stroke="black" points="11.5,-30 11.5,-51 94.5,-51 94.5,-30 11.5,-30"/>
<text text-anchor="start" x="22.5" y="-36.8" font-family="Times,serif" font-size="14.00">Data: 12</text>
<polygon fill="none" stroke="black" points="11.5,-7 11.5,-28 46.5,-28 46.5,-7 11.5,-7"/>
<text text-anchor="start" x="14.5" y="-13.8" font-family="Times,serif" font-size="14.00">Left</text>
<polygon fill="none" stroke="black" points="48.5,-7 48.5,-28 94.5,-28 94.5,-7 48.5,-7"/>
<text text-anchor="start" x="51.5" y="-13.8" font-family="Times,serif" font-size="14.00">Right</text>
<polygon fill="none" stroke="black" points="8,-4 8,-54 97,-54 97,-4 8,-4"/>
</g>
<!-- node0x4a5c0a0 -->
<g id="node2" class="node">
<title>node0x4a5c0a0</title>
<polygon fill="lightskyblue" stroke="transparent" points="75.5,-124 75.5,-145 158.5,-145 158.5,-124 75.5,-124"/>
<polygon fill="none" stroke="black" points="75.5,-124 75.5,-145 158.5,-145 158.5,-124 75.5,-124"/>
<text text-anchor="start" x="86.5" y="-130.8" font-family="Times,serif" font-size="14.00">Data: 11</text>
<polygon fill="none" stroke="black" points="75.5,-101 75.5,-122 110.5,-122 110.5,-101 75.5,-101"/>
<text text-anchor="start" x="78.5" y="-107.8" font-family="Times,serif" font-size="14.00">Left</text>
<polygon fill="none" stroke="black" points="112.5,-101 112.5,-122 158.5,-122 158.5,-101 112.5,-101"/>
<text text-anchor="start" x="115.5" y="-107.8" font-family="Times,serif" font-size="14.00">Right</text>
<polygon fill="none" stroke="black" points="72,-98 72,-148 161,-148 161,-98 72,-98"/>
</g>
<!-- node0x4a5c0a0&#45;&gt;node0x4a5c160 -->
<g id="edge1" class="edge">
<title>node0x4a5c0a0:lchild&#45;&gt;node0x4a5c160</title>
<path fill="none" stroke="black" stroke-width="2" d="M92.5,-100C92.5,-88.42 88.32,-77.01 82.66,-66.87"/>
<polygon fill="black" stroke="black" stroke-width="2" points="77.38,-58.32 86.46,-64.46 80.43,-62.31 83.06,-66.56 82.63,-66.82 82.21,-67.09 79.58,-62.83 78.81,-69.19 77.38,-58.32 77.38,-58.32"/>
</g>
<!-- node0x4a5c1c0 -->
<g id="node3" class="node">
<title>node0x4a5c1c0</title>
<polygon fill="lightskyblue" stroke="transparent" points="134.5,-30 134.5,-51 217.5,-51 217.5,-30 134.5,-30"/>
<polygon fill="none" stroke="black" points="134.5,-30 134.5,-51 217.5,-51 217.5,-30 134.5,-30"/>
<text text-anchor="start" x="145.5" y="-36.8" font-family="Times,serif" font-size="14.00">Data: 13</text>
<polygon fill="none" stroke="black" points="134.5,-7 134.5,-28 169.5,-28 169.5,-7 134.5,-7"/>
<text text-anchor="start" x="137.5" y="-13.8" font-family="Times,serif" font-size="14.00">Left</text>
<polygon fill="none" stroke="black" points="171.5,-7 171.5,-28 217.5,-28 217.5,-7 171.5,-7"/>
<text text-anchor="start" x="174.5" y="-13.8" font-family="Times,serif" font-size="14.00">Right</text>
<polygon fill="none" stroke="black" points="131,-4 131,-54 220,-54 220,-4 131,-4"/>
</g>
<!-- node0x4a5c0a0&#45;&gt;node0x4a5c1c0 -->
<g id="edge2" class="edge">
<title>node0x4a5c0a0:rchild&#45;&gt;node0x4a5c1c0</title>
<path fill="none" stroke="black" stroke-width="2" d="M135.5,-100C135.5,-88.42 139.68,-77.01 145.34,-66.87"/>
<polygon fill="black" stroke="black" stroke-width="2" points="150.62,-58.32 149.19,-69.19 148.42,-62.83 145.79,-67.09 145.37,-66.82 144.94,-66.56 147.57,-62.31 141.54,-64.46 150.62,-58.32 150.62,-58.32"/>
</g>
<!-- node0x4a5c040 -->
<g id="node4" class="node">
<title>node0x4a5c040</title>
<polygon fill="lightskyblue" stroke="transparent" points="139.5,-218 139.5,-239 222.5,-239 222.5,-218 139.5,-218"/>
<polygon fill="none" stroke="black" points="139.5,-218 139.5,-239 222.5,-239 222.5,-218 139.5,-218"/>
<text text-anchor="start" x="150.5" y="-224.8" font-family="Times,serif" font-size="14.00">Data: 10</text>
<polygon fill="none" stroke="black" points="139.5,-195 139.5,-216 174.5,-216 174.5,-195 139.5,-195"/>
<text text-anchor="start" x="142.5" y="-201.8" font-family="Times,serif" font-size="14.00">Left</text>
<polygon fill="none" stroke="black" points="176.5,-195 176.5,-216 222.5,-216 222.5,-195 176.5,-195"/>
<text text-anchor="start" x="179.5" y="-201.8" font-family="Times,serif" font-size="14.00">Right</text>
<polygon fill="none" stroke="black" points="136,-192 136,-242 225,-242 225,-192 136,-192"/>
</g>
<!-- node0x4a5c040&#45;&gt;node0x4a5c0a0 -->
<g id="edge3" class="edge">
<title>node0x4a5c040:lchild&#45;&gt;node0x4a5c0a0</title>
<path fill="none" stroke="black" stroke-width="2" d="M156.5,-194C156.5,-182.42 152.32,-171.01 146.66,-160.87"/>
<polygon fill="black" stroke="black" stroke-width="2" points="141.38,-152.32 150.46,-158.46 144.43,-156.31 147.06,-160.56 146.63,-160.82 146.21,-161.09 143.58,-156.83 142.81,-163.19 141.38,-152.32 141.38,-152.32"/>
</g>
<!-- node0x4a5c100 -->
<g id="node5" class="node">
<title>node0x4a5c100</title>
<polygon fill="lightskyblue" stroke="transparent" points="198.5,-124 198.5,-145 281.5,-145 281.5,-124 198.5,-124"/>
<polygon fill="none" stroke="black" points="198.5,-124 198.5,-145 281.5,-145 281.5,-124 198.5,-124"/>
<text text-anchor="start" x="209.5" y="-130.8" font-family="Times,serif" font-size="14.00">Data: 21</text>
<polygon fill="none" stroke="black" points="198.5,-101 198.5,-122 233.5,-122 233.5,-101 198.5,-101"/>
<text text-anchor="start" x="201.5" y="-107.8" font-family="Times,serif" font-size="14.00">Left</text>
<polygon fill="none" stroke="black" points="235.5,-101 235.5,-122 281.5,-122 281.5,-101 235.5,-101"/>
<text text-anchor="start" x="238.5" y="-107.8" font-family="Times,serif" font-size="14.00">Right</text>
<polygon fill="none" stroke="black" points="195,-98 195,-148 284,-148 284,-98 195,-98"/>
</g>
<!-- node0x4a5c040&#45;&gt;node0x4a5c100 -->
<g id="edge4" class="edge">
<title>node0x4a5c040:rchild&#45;&gt;node0x4a5c100</title>
<path fill="none" stroke="black" stroke-width="2" d="M199.5,-194C199.5,-182.42 203.68,-171.01 209.34,-160.87"/>
<polygon fill="black" stroke="black" stroke-width="2" points="214.62,-152.32 213.19,-163.19 212.42,-156.83 209.79,-161.09 209.37,-160.82 208.94,-160.56 211.57,-156.31 205.54,-158.46 214.62,-152.32 214.62,-152.32"/>
</g>
</g>
</svg>
